<svg width="20" height="20" viewBox="0 0 20 20" fill="none" xmlns="http://www.w3.org/2000/svg">
<path d="M6.13222 0L2.42022 6.496H1.00022C0.688221 6.496 0.395221 6.642 0.205221 6.889C0.0162211 7.137 -0.0467787 7.459 0.0352213 7.759L2.83422 18.022C3.07022 18.89 3.86422 19.496 4.76422 19.496H15.2372C16.1352 19.496 16.9292 18.891 17.1672 18.021L19.9662 7.758C20.0482 7.458 19.9862 7.136 19.7962 6.888C19.6052 6.642 19.3122 6.496 19.0002 6.496H17.5802L13.8682 0L12.1322 0.992L15.2772 6.496H4.72322L7.86822 0.992L6.13222 0ZM12.0002 10.496H14.0002V15.496H12.0002V10.496ZM6.00022 10.496H8.00022V15.496H6.00022V10.496Z" fill="#1B1B1D"/>
</svg>
